# xmcd
#
# Track frame offsets:
# 150
# 19977
# 38096
# 54429
# 68112
# 91741
# 106730
# 122957
# 142880
# 165367
# 182046
# 201489
#
# Disc length: 2870 seconds
#
# Revision: 0
# Processed by: cddbd v1.5.1PL2 Copyright (c) Steve Scherf et al.
# Submitted via: Audion 3.0.2 (http://www.panic.com/audion/)
#
DISCID=9c0b340c
DTITLE=Hannah Bingham - Right Right Now
DYEAR=1900
DGENRE=
TTITLE0=The Greater Picture
TTITLE1=I still Carry Your Picture Around
TTITLE2=Been So Lost
TTITLE3=Finished Fine Done
TTITLE4=Letter To Your Senator
TTITLE5=Long Time Coming
TTITLE6=All Over Now
TTITLE7=Used To Be
TTITLE8=Heart Like A Fist
TTITLE9=Right, Right Now
TTITLE10=Route 68
TTITLE11=Something To Say
EXTD=
EXTT0=
EXTT1=
EXTT2=
EXTT3=
EXTT4=
EXTT5=
EXTT6=
EXTT7=
EXTT8=
EXTT9=
EXTT10=
EXTT11=
PLAYORDER=
